solid OpenSCAD_Model
  facet normal -0 0 1
    outer loop
      vertex 0 89 38
      vertex 300 0 38
      vertex 300 89 38
    endloop
  endfacet
  facet normal 0 0 1
    outer loop
      vertex 300 0 38
      vertex 0 89 38
      vertex 0 0 38
    endloop
  endfacet
  facet normal 0 0 -1
    outer loop
      vertex 0 0 0
      vertex 300 89 0
      vertex 300 0 0
    endloop
  endfacet
  facet normal -0 0 -1
    outer loop
      vertex 300 89 0
      vertex 0 0 0
      vertex 0 89 0
    endloop
  endfacet
  facet normal -1 0 0
    outer loop
      vertex 0 0 0
      vertex 0 89 38
      vertex 0 89 0
    endloop
  endfacet
  facet normal -1 -0 0
    outer loop
      vertex 0 89 38
      vertex 0 0 0
      vertex 0 0 38
    endloop
  endfacet
  facet normal 0 1 -0
    outer loop
      vertex 300 89 0
      vertex 0 89 38
      vertex 300 89 38
    endloop
  endfacet
  facet normal 0 1 0
    outer loop
      vertex 0 89 38
      vertex 300 89 0
      vertex 0 89 0
    endloop
  endfacet
  facet normal 0 -1 0
    outer loop
      vertex 0 0 0
      vertex 300 0 38
      vertex 0 0 38
    endloop
  endfacet
  facet normal 0 -1 -0
    outer loop
      vertex 300 0 38
      vertex 0 0 0
      vertex 300 0 0
    endloop
  endfacet
  facet normal 1 -0 0
    outer loop
      vertex 300 0 38
      vertex 300 89 0
      vertex 300 89 38
    endloop
  endfacet
  facet normal 1 0 0
    outer loop
      vertex 300 89 0
      vertex 300 0 38
      vertex 300 0 0
    endloop
  endfacet
endsolid OpenSCAD_Model
