0
SECTION
2
ENTITIES
0
LINE
8
W-001
10
0.0000
20
0.0000
11
5.5000
21
0.0000
0
LINE
8
W-001
10
5.5000
20
0.0000
11
5.5000
21
1.1250
0
LINE
8
W-001
10
5.5000
20
1.1250
11
0.0000
21
1.1250
0
LINE
8
W-001
10
0.0000
20
1.1250
11
0.0000
21
0.0000
0
LINE
8
CHECK_100MM
10
0.0000
20
-2.0000
11
3.9370
21
-2.0000
0
LINE
8
CHECK_100MM
10
3.9370
20
-2.0000
11
3.9370
21
-1.6063
0
LINE
8
CHECK_100MM
10
3.9370
20
-1.6063
11
0.0000
21
-1.6063
0
LINE
8
CHECK_100MM
10
0.0000
20
-1.6063
11
0.0000
21
-2.0000
0
ENDSEC
0
EOF
