solid W003_pivot
  facet normal 0 0 -1
    outer loop
      vertex 0.000 0.000 0.000
      vertex 0.000 31.750 0.000
      vertex 31.750 31.750 0.000
    endloop
  endfacet
  facet normal 0 0 -1
    outer loop
      vertex 0.000 0.000 0.000
      vertex 31.750 31.750 0.000
      vertex 31.750 0.000 0.000
    endloop
  endfacet
  facet normal 0 0 1
    outer loop
      vertex 0.000 0.000 101.600
      vertex 31.750 0.000 101.600
      vertex 31.750 31.750 101.600
    endloop
  endfacet
  facet normal 0 0 1
    outer loop
      vertex 0.000 0.000 101.600
      vertex 31.750 31.750 101.600
      vertex 0.000 31.750 101.600
    endloop
  endfacet
  facet normal 0 -1 0
    outer loop
      vertex 0.000 0.000 0.000
      vertex 31.750 0.000 0.000
      vertex 31.750 0.000 101.600
    endloop
  endfacet
  facet normal 0 -1 0
    outer loop
      vertex 0.000 0.000 0.000
      vertex 31.750 0.000 101.600
      vertex 0.000 0.000 101.600
    endloop
  endfacet
  facet normal 0 1 0
    outer loop
      vertex 31.750 31.750 0.000
      vertex 0.000 31.750 0.000
      vertex 0.000 31.750 101.600
    endloop
  endfacet
  facet normal 0 1 0
    outer loop
      vertex 31.750 31.750 0.000
      vertex 0.000 31.750 101.600
      vertex 31.750 31.750 101.600
    endloop
  endfacet
  facet normal -1 0 0
    outer loop
      vertex 0.000 0.000 0.000
      vertex 0.000 0.000 101.600
      vertex 0.000 31.750 101.600
    endloop
  endfacet
  facet normal -1 0 0
    outer loop
      vertex 0.000 0.000 0.000
      vertex 0.000 31.750 101.600
      vertex 0.000 31.750 0.000
    endloop
  endfacet
  facet normal 1 0 0
    outer loop
      vertex 31.750 0.000 0.000
      vertex 31.750 31.750 0.000
      vertex 31.750 31.750 101.600
    endloop
  endfacet
  facet normal 1 0 0
    outer loop
      vertex 31.750 0.000 0.000
      vertex 31.750 31.750 101.600
      vertex 31.750 0.000 101.600
    endloop
  endfacet
endsolid W003_pivot
