<svg xmlns="http://www.w3.org/2000/svg" viewBox="0 0 512 512" role="img" aria-label="BEDROCK">
  <rect width="512" height="512" fill="#0D0D0D"/>
  <!-- industrial hatch -->
  <defs>
    <pattern id="h" width="16" height="16" patternUnits="userSpaceOnUse" patternTransform="rotate(-45)">
      <rect width="1" height="16" fill="#F7F7F5" opacity="0.08"/>
    </pattern>
  </defs>
  <rect width="512" height="512" fill="url(#h)"/>
  <!-- viewfinder corners — Nothing / TE modular -->
  <g fill="none" stroke="#FF4D00" stroke-width="20" stroke-linecap="square">
    <path d="M56 56h80M56 56v80"/>
    <path d="M456 56h-80M456 56v80"/>
    <path d="M56 456h80M56 456v-80"/>
    <path d="M456 456h-80M456 456v-80"/>
  </g>
  <!-- caution tape bar -->
  <g>
    <rect x="56" y="430" width="400" height="14" fill="#E8FF00"/>
    <path d="M56 430h400" stroke="#0D0D0D" stroke-width="2"/>
    <path fill="#0D0D0D" d="M80 430l20 14h-14l-20-14zm48 0l20 14h-14l-20-14zm48 0l20 14h-14l-20-14zm48 0l20 14h-14l-20-14zm48 0l20 14h-14l-20-14zm48 0l20 14h-14l-20-14zm48 0l20 14h-14l-20-14zm48 0l20 14h-14l-20-14z"/>
  </g>
  <text x="256" y="268" text-anchor="middle" dominant-baseline="central"
        font-family="Archivo Black, Arial Black, Helvetica, sans-serif"
        font-weight="400" font-size="280" fill="#FF4D00">B</text>
</svg>
