ISO-10303-21;
HEADER;
FILE_DESCRIPTION(('Open CASCADE Model'),'2;1');
FILE_NAME('Open CASCADE Shape Model','2026-08-15T08:52:40',('Author'),(
    'Open CASCADE'),'Open CASCADE STEP processor 7.9','Open CASCADE 7.9'
  ,'Unknown');
FILE_SCHEMA(('AUTOMOTIVE_DESIGN { 1 0 10303 214 1 1 1 1 }'));
ENDSEC;
DATA;
#1 = APPLICATION_PROTOCOL_DEFINITION('international standard',
  'automotive_design',2000,#2);
#2 = APPLICATION_CONTEXT(
  'core data for automotive mechanical design processes');
#3 = SHAPE_DEFINITION_REPRESENTATION(#4,#10);
#4 = PRODUCT_DEFINITION_SHAPE('','',#5);
#5 = PRODUCT_DEFINITION('design','',#6,#9);
#6 = PRODUCT_DEFINITION_FORMATION('','',#7);
#7 = PRODUCT('Open CASCADE STEP translator 7.9 6',
  'Open CASCADE STEP translator 7.9 6','',(#8));
#8 = PRODUCT_CONTEXT('',#2,'mechanical');
#9 = PRODUCT_DEFINITION_CONTEXT('part definition',#2,'design');
#10 = ADVANCED_BREP_SHAPE_REPRESENTATION('',(#11,#15),#1028);
#11 = AXIS2_PLACEMENT_3D('',#12,#13,#14);
#12 = CARTESIAN_POINT('',(0.,0.,0.));
#13 = DIRECTION('',(0.,0.,1.));
#14 = DIRECTION('',(1.,0.,-0.));
#15 = MANIFOLD_SOLID_BREP('',#16);
#16 = CLOSED_SHELL('',(#17,#105,#140,#144,#822,#857,#958,#963,#968,#1020
    ,#1024));
#17 = ADVANCED_FACE('',(#18),#32,.T.);
#18 = FACE_BOUND('',#19,.T.);
#19 = EDGE_LOOP('',(#20,#50,#77,#78));
#20 = ORIENTED_EDGE('',*,*,#21,.T.);
#21 = EDGE_CURVE('',#22,#24,#26,.T.);
#22 = VERTEX_POINT('',#23);
#23 = CARTESIAN_POINT('',(-18.,4.1,0.));
#24 = VERTEX_POINT('',#25);
#25 = CARTESIAN_POINT('',(-21.2,4.1,0.));
#26 = SEAM_CURVE('',#27,(#31,#43),.PCURVE_S1.);
#27 = LINE('',#28,#29);
#28 = CARTESIAN_POINT('',(-18.,4.1,0.));
#29 = VECTOR('',#30,1.);
#30 = DIRECTION('',(-1.,-0.,-0.));
#31 = PCURVE('',#32,#37);
#32 = CYLINDRICAL_SURFACE('',#33,4.1);
#33 = AXIS2_PLACEMENT_3D('',#34,#35,#36);
#34 = CARTESIAN_POINT('',(-18.,0.,0.));
#35 = DIRECTION('',(1.,0.,0.));
#36 = DIRECTION('',(0.,1.,0.));
#37 = DEFINITIONAL_REPRESENTATION('',(#38),#42);
#38 = LINE('',#39,#40);
#39 = CARTESIAN_POINT('',(0.,0.));
#40 = VECTOR('',#41,1.);
#41 = DIRECTION('',(0.,-1.));
#42 = ( GEOMETRIC_REPRESENTATION_CONTEXT(2) 
PARAMETRIC_REPRESENTATION_CONTEXT() REPRESENTATION_CONTEXT('2D SPACE',''
  ) );
#43 = PCURVE('',#32,#44);
#44 = DEFINITIONAL_REPRESENTATION('',(#45),#49);
#45 = LINE('',#46,#47);
#46 = CARTESIAN_POINT('',(6.28318530718,0.));
#47 = VECTOR('',#48,1.);
#48 = DIRECTION('',(0.,-1.));
#49 = ( GEOMETRIC_REPRESENTATION_CONTEXT(2) 
PARAMETRIC_REPRESENTATION_CONTEXT() REPRESENTATION_CONTEXT('2D SPACE',''
  ) );
#50 = ORIENTED_EDGE('',*,*,#51,.T.);
#51 = EDGE_CURVE('',#24,#24,#52,.T.);
#52 = SURFACE_CURVE('',#53,(#58,#65),.PCURVE_S1.);
#53 = CIRCLE('',#54,4.1);
#54 = AXIS2_PLACEMENT_3D('',#55,#56,#57);
#55 = CARTESIAN_POINT('',(-21.2,0.,0.));
#56 = DIRECTION('',(1.,0.,0.));
#57 = DIRECTION('',(0.,1.,0.));
#58 = PCURVE('',#32,#59);
#59 = DEFINITIONAL_REPRESENTATION('',(#60),#64);
#60 = LINE('',#61,#62);
#61 = CARTESIAN_POINT('',(0.,-3.2));
#62 = VECTOR('',#63,1.);
#63 = DIRECTION('',(1.,0.));
#64 = ( GEOMETRIC_REPRESENTATION_CONTEXT(2) 
PARAMETRIC_REPRESENTATION_CONTEXT() REPRESENTATION_CONTEXT('2D SPACE',''
  ) );
#65 = PCURVE('',#66,#71);
#66 = PLANE('',#67);
#67 = AXIS2_PLACEMENT_3D('',#68,#69,#70);
#68 = CARTESIAN_POINT('',(-21.2,-1.667609917731E-16,1.661535876627E-16)
  );
#69 = DIRECTION('',(1.,0.,0.));
#70 = DIRECTION('',(-0.,0.,1.));
#71 = DEFINITIONAL_REPRESENTATION('',(#72),#76);
#72 = CIRCLE('',#73,4.1);
#73 = AXIS2_PLACEMENT_2D('',#74,#75);
#74 = CARTESIAN_POINT('',(-1.661535876627E-16,-1.667609917731E-16));
#75 = DIRECTION('',(0.,-1.));
#76 = ( GEOMETRIC_REPRESENTATION_CONTEXT(2) 
PARAMETRIC_REPRESENTATION_CONTEXT() REPRESENTATION_CONTEXT('2D SPACE',''
  ) );
#77 = ORIENTED_EDGE('',*,*,#21,.F.);
#78 = ORIENTED_EDGE('',*,*,#79,.F.);
#79 = EDGE_CURVE('',#22,#22,#80,.T.);
#80 = SURFACE_CURVE('',#81,(#86,#93),.PCURVE_S1.);
#81 = CIRCLE('',#82,4.1);
#82 = AXIS2_PLACEMENT_3D('',#83,#84,#85);
#83 = CARTESIAN_POINT('',(-18.,0.,0.));
#84 = DIRECTION('',(1.,0.,0.));
#85 = DIRECTION('',(0.,1.,0.));
#86 = PCURVE('',#32,#87);
#87 = DEFINITIONAL_REPRESENTATION('',(#88),#92);
#88 = LINE('',#89,#90);
#89 = CARTESIAN_POINT('',(0.,0.));
#90 = VECTOR('',#91,1.);
#91 = DIRECTION('',(1.,0.));
#92 = ( GEOMETRIC_REPRESENTATION_CONTEXT(2) 
PARAMETRIC_REPRESENTATION_CONTEXT() REPRESENTATION_CONTEXT('2D SPACE',''
  ) );
#93 = PCURVE('',#94,#99);
#94 = PLANE('',#95);
#95 = AXIS2_PLACEMENT_3D('',#96,#97,#98);
#96 = CARTESIAN_POINT('',(-18.,-1.667609917731E-16,1.661535876627E-16));
#97 = DIRECTION('',(1.,0.,0.));
#98 = DIRECTION('',(-0.,0.,1.));
#99 = DEFINITIONAL_REPRESENTATION('',(#100),#104);
#100 = CIRCLE('',#101,4.1);
#101 = AXIS2_PLACEMENT_2D('',#102,#103);
#102 = CARTESIAN_POINT('',(-1.661535876627E-16,-1.667609917731E-16));
#103 = DIRECTION('',(0.,-1.));
#104 = ( GEOMETRIC_REPRESENTATION_CONTEXT(2) 
PARAMETRIC_REPRESENTATION_CONTEXT() REPRESENTATION_CONTEXT('2D SPACE',''
  ) );
#105 = ADVANCED_FACE('',(#106,#109),#94,.T.);
#106 = FACE_BOUND('',#107,.T.);
#107 = EDGE_LOOP('',(#108));
#108 = ORIENTED_EDGE('',*,*,#79,.T.);
#109 = FACE_BOUND('',#110,.T.);
#110 = EDGE_LOOP('',(#111));
#111 = ORIENTED_EDGE('',*,*,#112,.F.);
#112 = EDGE_CURVE('',#113,#113,#115,.T.);
#113 = VERTEX_POINT('',#114);
#114 = CARTESIAN_POINT('',(-18.,1.55,0.));
#115 = SURFACE_CURVE('',#116,(#121,#128),.PCURVE_S1.);
#116 = CIRCLE('',#117,1.55);
#117 = AXIS2_PLACEMENT_3D('',#118,#119,#120);
#118 = CARTESIAN_POINT('',(-18.,0.,0.));
#119 = DIRECTION('',(1.,0.,0.));
#120 = DIRECTION('',(0.,1.,0.));
#121 = PCURVE('',#94,#122);
#122 = DEFINITIONAL_REPRESENTATION('',(#123),#127);
#123 = CIRCLE('',#124,1.55);
#124 = AXIS2_PLACEMENT_2D('',#125,#126);
#125 = CARTESIAN_POINT('',(-1.661535876627E-16,-1.667609917731E-16));
#126 = DIRECTION('',(0.,-1.));
#127 = ( GEOMETRIC_REPRESENTATION_CONTEXT(2) 
PARAMETRIC_REPRESENTATION_CONTEXT() REPRESENTATION_CONTEXT('2D SPACE',''
  ) );
#128 = PCURVE('',#129,#134);
#129 = CYLINDRICAL_SURFACE('',#130,1.55);
#130 = AXIS2_PLACEMENT_3D('',#131,#132,#133);
#131 = CARTESIAN_POINT('',(0.,0.,0.));
#132 = DIRECTION('',(1.,0.,0.));
#133 = DIRECTION('',(0.,1.,0.));
#134 = DEFINITIONAL_REPRESENTATION('',(#135),#139);
#135 = LINE('',#136,#137);
#136 = CARTESIAN_POINT('',(0.,-18.));
#137 = VECTOR('',#138,1.);
#138 = DIRECTION('',(1.,0.));
#139 = ( GEOMETRIC_REPRESENTATION_CONTEXT(2) 
PARAMETRIC_REPRESENTATION_CONTEXT() REPRESENTATION_CONTEXT('2D SPACE',''
  ) );
#140 = ADVANCED_FACE('',(#141),#66,.F.);
#141 = FACE_BOUND('',#142,.F.);
#142 = EDGE_LOOP('',(#143));
#143 = ORIENTED_EDGE('',*,*,#51,.T.);
#144 = ADVANCED_FACE('',(#145,#199),#129,.T.);
#145 = FACE_BOUND('',#146,.T.);
#146 = EDGE_LOOP('',(#147,#176,#197,#198));
#147 = ORIENTED_EDGE('',*,*,#148,.F.);
#148 = EDGE_CURVE('',#149,#149,#151,.T.);
#149 = VERTEX_POINT('',#150);
#150 = CARTESIAN_POINT('',(0.,1.55,0.));
#151 = SURFACE_CURVE('',#152,(#157,#164),.PCURVE_S1.);
#152 = CIRCLE('',#153,1.55);
#153 = AXIS2_PLACEMENT_3D('',#154,#155,#156);
#154 = CARTESIAN_POINT('',(0.,0.,0.));
#155 = DIRECTION('',(1.,0.,0.));
#156 = DIRECTION('',(0.,1.,0.));
#157 = PCURVE('',#129,#158);
#158 = DEFINITIONAL_REPRESENTATION('',(#159),#163);
#159 = LINE('',#160,#161);
#160 = CARTESIAN_POINT('',(0.,0.));
#161 = VECTOR('',#162,1.);
#162 = DIRECTION('',(1.,0.));
#163 = ( GEOMETRIC_REPRESENTATION_CONTEXT(2) 
PARAMETRIC_REPRESENTATION_CONTEXT() REPRESENTATION_CONTEXT('2D SPACE',''
  ) );
#164 = PCURVE('',#165,#170);
#165 = PLANE('',#166);
#166 = AXIS2_PLACEMENT_3D('',#167,#168,#169);
#167 = CARTESIAN_POINT('',(0.,0.,0.));
#168 = DIRECTION('',(1.,0.,0.));
#169 = DIRECTION('',(0.,1.,0.));
#170 = DEFINITIONAL_REPRESENTATION('',(#171),#175);
#171 = CIRCLE('',#172,1.55);
#172 = AXIS2_PLACEMENT_2D('',#173,#174);
#173 = CARTESIAN_POINT('',(0.,0.));
#174 = DIRECTION('',(1.,0.));
#175 = ( GEOMETRIC_REPRESENTATION_CONTEXT(2) 
PARAMETRIC_REPRESENTATION_CONTEXT() REPRESENTATION_CONTEXT('2D SPACE',''
  ) );
#176 = ORIENTED_EDGE('',*,*,#177,.T.);
#177 = EDGE_CURVE('',#149,#113,#178,.T.);
#178 = SEAM_CURVE('',#179,(#183,#190),.PCURVE_S1.);
#179 = LINE('',#180,#181);
#180 = CARTESIAN_POINT('',(0.,1.55,0.));
#181 = VECTOR('',#182,1.);
#182 = DIRECTION('',(-1.,-0.,-0.));
#183 = PCURVE('',#129,#184);
#184 = DEFINITIONAL_REPRESENTATION('',(#185),#189);
#185 = LINE('',#186,#187);
#186 = CARTESIAN_POINT('',(6.28318530718,0.));
#187 = VECTOR('',#188,1.);
#188 = DIRECTION('',(0.,-1.));
#189 = ( GEOMETRIC_REPRESENTATION_CONTEXT(2) 
PARAMETRIC_REPRESENTATION_CONTEXT() REPRESENTATION_CONTEXT('2D SPACE',''
  ) );
#190 = PCURVE('',#129,#191);
#191 = DEFINITIONAL_REPRESENTATION('',(#192),#196);
#192 = LINE('',#193,#194);
#193 = CARTESIAN_POINT('',(0.,0.));
#194 = VECTOR('',#195,1.);
#195 = DIRECTION('',(0.,-1.));
#196 = ( GEOMETRIC_REPRESENTATION_CONTEXT(2) 
PARAMETRIC_REPRESENTATION_CONTEXT() REPRESENTATION_CONTEXT('2D SPACE',''
  ) );
#197 = ORIENTED_EDGE('',*,*,#112,.T.);
#198 = ORIENTED_EDGE('',*,*,#177,.F.);
#199 = FACE_BOUND('',#200,.T.);
#200 = EDGE_LOOP('',(#201,#354,#500,#526,#798));
#201 = ORIENTED_EDGE('',*,*,#202,.T.);
#202 = EDGE_CURVE('',#203,#205,#207,.T.);
#203 = VERTEX_POINT('',#204);
#204 = CARTESIAN_POINT('',(-9.60313730334,0.,1.55));
#205 = VERTEX_POINT('',#206);
#206 = CARTESIAN_POINT('',(-8.4,-1.55,0.));
#207 = SURFACE_CURVE('',#208,(#253,#301),.PCURVE_S1.);
#208 = B_SPLINE_CURVE_WITH_KNOTS('',8,(#209,#210,#211,#212,#213,#214,
    #215,#216,#217,#218,#219,#220,#221,#222,#223,#224,#225,#226,#227,
    #228,#229,#230,#231,#232,#233,#234,#235,#236,#237,#238,#239,#240,
    #241,#242,#243,#244,#245,#246,#247,#248,#249,#250,#251,#252),
  .UNSPECIFIED.,.F.,.F.,(9,7,7,7,7,7,9),(0.,7.679761061419E-02,
    0.186322629425,0.324366472593,0.752187601909,0.846236926559,1.),
  .UNSPECIFIED.);
#209 = CARTESIAN_POINT('',(-9.60313730334,6.000000001283E-07,1.55));
#210 = CARTESIAN_POINT('',(-9.603137341485,-2.522980633439E-02,
    1.550000009766));
#211 = CARTESIAN_POINT('',(-9.601304306506,-5.02200749391E-02,
    1.549530628181));
#212 = CARTESIAN_POINT('',(-9.597698872328,-7.497918113488E-02,
    1.548607614684));
#213 = CARTESIAN_POINT('',(-9.592425683569,-9.949810461697E-02,
    1.547244480508));
#214 = CARTESIAN_POINT('',(-9.585635250881,-0.123738121705,
    1.545456125066));
#215 = CARTESIAN_POINT('',(-9.577525399966,-0.147619594455,
    1.543264644381));
#216 = CARTESIAN_POINT('',(-9.568342274278,-0.171011256635,
    1.540707311563));
#217 = CARTESIAN_POINT('',(-9.544174451433,-0.226106097491,
    1.533767106029));
#218 = CARTESIAN_POINT('',(-9.528111648503,-0.257725844512,
    1.528992185234));
#219 = CARTESIAN_POINT('',(-9.510643843555,-0.288612667196,
    1.523574925206));
#220 = CARTESIAN_POINT('',(-9.492149666299,-0.31878616233,1.517562601931
    ));
#221 = CARTESIAN_POINT('',(-9.472917235409,-0.348280653084,
    1.510996759693));
#222 = CARTESIAN_POINT('',(-9.453129234286,-0.377173361273,
    1.503903847169));
#223 = CARTESIAN_POINT('',(-9.432850842381,-0.405612192727,
    1.496276539032));
#224 = CARTESIAN_POINT('',(-9.385766269881,-0.469425032149,
    1.477671759922));
#225 = CARTESIAN_POINT('',(-9.358753661015,-0.504515031027,
    1.466386144404));
#226 = CARTESIAN_POINT('',(-9.331271823355,-0.539067605755,
    1.454223871674));
#227 = CARTESIAN_POINT('',(-9.303513746213,-0.573079633938,
    1.441211849587));
#228 = CARTESIAN_POINT('',(-9.27559319183,-0.606584682963,1.427360404008
    ));
#229 = CARTESIAN_POINT('',(-9.247560999788,-0.639646564778,
    1.412656354309));
#230 = CARTESIAN_POINT('',(-9.219420784356,-0.672352159906,
    1.397057679115));
#231 = CARTESIAN_POINT('',(-9.103509582353,-0.805375714578,
    1.329143037355));
#232 = CARTESIAN_POINT('',(-9.015849518899,-0.902031436524,
    1.269240306202));
#233 = CARTESIAN_POINT('',(-8.929471112278,-0.995498326855,
    1.200272233469));
#234 = CARTESIAN_POINT('',(-8.845021475052,-1.085536819787,
    1.121434959491));
#235 = CARTESIAN_POINT('',(-8.763676026033,-1.171480660809,
    1.031790833819));
#236 = CARTESIAN_POINT('',(-8.686940525517,-1.25195764905,0.930436948269
    ));
#237 = CARTESIAN_POINT('',(-8.616916398889,-1.325035895863,
    0.816586436454));
#238 = CARTESIAN_POINT('',(-8.543035728401,-1.401877091904,
    0.661973393145));
#239 = CARTESIAN_POINT('',(-8.530176597957,-1.415239566535,
    0.633482658484));
#240 = CARTESIAN_POINT('',(-8.517808495738,-1.42808132016,0.604373403965
    ));
#241 = CARTESIAN_POINT('',(-8.505966886007,-1.440367313943,
    0.574655435908));
#242 = CARTESIAN_POINT('',(-8.494687006053,-1.452062664802,
    0.544339872335));
#243 = CARTESIAN_POINT('',(-8.484003866193,-1.463132645409,
    0.513439142974));
#244 = CARTESIAN_POINT('',(-8.473952249774,-1.473542684191,
    0.481966989261));
#245 = CARTESIAN_POINT('',(-8.44922211649,-1.499142721729,0.397574404848
    ));
#246 = CARTESIAN_POINT('',(-8.435629491961,-1.513200449563,
    0.343626355143));
#247 = CARTESIAN_POINT('',(-8.424000990293,-1.525217820957,
    0.288319320348));
#248 = CARTESIAN_POINT('',(-8.414509719164,-1.535020866465,
    0.231890889784));
#249 = CARTESIAN_POINT('',(-8.407289518443,-1.542475340326,
    0.174588461198));
#250 = CARTESIAN_POINT('',(-8.402434735413,-1.547486685715,
    0.116666464994));
#251 = CARTESIAN_POINT('',(-8.4,-1.55,5.838358845993E-02));
#252 = CARTESIAN_POINT('',(-8.4,-1.55,2.847303808018E-16));
#253 = PCURVE('',#129,#254);
#254 = DEFINITIONAL_REPRESENTATION('',(#255),#300);
#255 = B_SPLINE_CURVE_WITH_KNOTS('',8,(#256,#257,#258,#259,#260,#261,
    #262,#263,#264,#265,#266,#267,#268,#269,#270,#271,#272,#273,#274,
    #275,#276,#277,#278,#279,#280,#281,#282,#283,#284,#285,#286,#287,
    #288,#289,#290,#291,#292,#293,#294,#295,#296,#297,#298,#299),
  .UNSPECIFIED.,.F.,.F.,(9,7,7,7,7,7,9),(0.,7.679761061419E-02,
    0.186322629425,0.324366472593,0.752187601909,0.846236926559,1.),
  .UNSPECIFIED.);
#256 = CARTESIAN_POINT('',(1.570795939698,-9.60313730334));
#257 = CARTESIAN_POINT('',(1.587073621204,-9.603137341485));
#258 = CARTESIAN_POINT('',(1.603196369507,-9.601304306506));
#259 = CARTESIAN_POINT('',(1.619176574225,-9.597698872328));
#260 = CARTESIAN_POINT('',(1.635014411244,-9.592425683569));
#261 = CARTESIAN_POINT('',(1.650690580537,-9.585635250881));
#262 = CARTESIAN_POINT('',(1.666158801507,-9.577525399966));
#263 = CARTESIAN_POINT('',(1.681338065846,-9.568342274278));
#264 = CARTESIAN_POINT('',(1.717164029387,-9.544174451433));
#265 = CARTESIAN_POINT('',(1.737788972161,-9.528111648503));
#266 = CARTESIAN_POINT('',(1.758010638065,-9.510643843555));
#267 = CARTESIAN_POINT('',(1.777849866776,-9.492149666299));
#268 = CARTESIAN_POINT('',(1.797335022475,-9.472917235409));
#269 = CARTESIAN_POINT('',(1.816521543267,-9.453129234286));
#270 = CARTESIAN_POINT('',(1.835513193374,-9.432850842381));
#271 = CARTESIAN_POINT('',(1.878396847804,-9.385766269881));
#272 = CARTESIAN_POINT('',(1.902168625081,-9.358753661015));
#273 = CARTESIAN_POINT('',(1.925786701067,-9.331271823355));
#274 = CARTESIAN_POINT('',(1.949264032377,-9.303513746213));
#275 = CARTESIAN_POINT('',(1.972638115097,-9.27559319183));
#276 = CARTESIAN_POINT('',(1.995969081184,-9.247560999788));
#277 = CARTESIAN_POINT('',(2.019337957291,-9.219420784356));
#278 = CARTESIAN_POINT('',(2.115697638721,-9.103509582353));
#279 = CARTESIAN_POINT('',(2.188809848048,-9.015849518899));
#280 = CARTESIAN_POINT('',(2.263337724102,-8.929471112278));
#281 = CARTESIAN_POINT('',(2.339989773325,-8.845021475052));
#282 = CARTESIAN_POINT('',(2.419456614691,-8.763676026033));
#283 = CARTESIAN_POINT('',(2.502279773492,-8.686940525517));
#284 = CARTESIAN_POINT('',(2.58903959102,-8.616916398889));
#285 = CARTESIAN_POINT('',(2.700429938908,-8.543035728401));
#286 = CARTESIAN_POINT('',(2.720727099713,-8.530176597957));
#287 = CARTESIAN_POINT('',(2.741244406412,-8.517808495738));
#288 = CARTESIAN_POINT('',(2.761979605675,-8.505966886007));
#289 = CARTESIAN_POINT('',(2.782930900129,-8.494687006053));
#290 = CARTESIAN_POINT('',(2.804096948355,-8.484003866193));
#291 = CARTESIAN_POINT('',(2.825476864887,-8.473952249774));
#292 = CARTESIAN_POINT('',(2.882373617594,-8.44922211649));
#293 = CARTESIAN_POINT('',(2.918312868315,-8.435629491961));
#294 = CARTESIAN_POINT('',(2.954776019334,-8.424000990293));
#295 = CARTESIAN_POINT('',(2.991661058474,-8.414509719164));
#296 = CARTESIAN_POINT('',(3.028873501404,-8.407289518443));
#297 = CARTESIAN_POINT('',(3.066323978601,-8.402434735413));
#298 = CARTESIAN_POINT('',(3.103925822325,-8.4));
#299 = CARTESIAN_POINT('',(3.14159265359,-8.4));
#300 = ( GEOMETRIC_REPRESENTATION_CONTEXT(2) 
PARAMETRIC_REPRESENTATION_CONTEXT() REPRESENTATION_CONTEXT('2D SPACE',''
  ) );
#301 = PCURVE('',#302,#307);
#302 = CYLINDRICAL_SURFACE('',#303,1.6);
#303 = AXIS2_PLACEMENT_3D('',#304,#305,#306);
#304 = CARTESIAN_POINT('',(-10.,0.,0.));
#305 = DIRECTION('',(-0.,1.,-0.));
#306 = DIRECTION('',(1.,0.,0.));
#307 = DEFINITIONAL_REPRESENTATION('',(#308),#353);
#308 = B_SPLINE_CURVE_WITH_KNOTS('',8,(#309,#310,#311,#312,#313,#314,
    #315,#316,#317,#318,#319,#320,#321,#322,#323,#324,#325,#326,#327,
    #328,#329,#330,#331,#332,#333,#334,#335,#336,#337,#338,#339,#340,
    #341,#342,#343,#344,#345,#346,#347,#348,#349,#350,#351,#352),
  .UNSPECIFIED.,.F.,.F.,(9,7,7,7,7,7,9),(0.,7.679761061419E-02,
    0.186322629425,0.324366472593,0.752187601909,0.846236926559,1.),
  .UNSPECIFIED.);
#309 = CARTESIAN_POINT('',(-1.320140664458,5.999999999062E-07));
#310 = CARTESIAN_POINT('',(-1.320140689068,-2.522980633439E-02));
#311 = CARTESIAN_POINT('',(-1.318958088535,-5.02200749391E-02));
#312 = CARTESIAN_POINT('',(-1.316631994014,-7.497918113488E-02));
#313 = CARTESIAN_POINT('',(-1.31322793895,-9.949810461698E-02));
#314 = CARTESIAN_POINT('',(-1.308839327681,-0.123738121705));
#315 = CARTESIAN_POINT('',(-1.303589076819,-0.147619594455));
#316 = CARTESIAN_POINT('',(-1.29763142943,-0.171011256635));
#317 = CARTESIAN_POINT('',(-1.281916064313,-0.226106097491));
#318 = CARTESIAN_POINT('',(-1.271443046036,-0.257725844512));
#319 = CARTESIAN_POINT('',(-1.260014148327,-0.288612667196));
#320 = CARTESIAN_POINT('',(-1.247862108056,-0.31878616233));
#321 = CARTESIAN_POINT('',(-1.235163424545,-0.348280653084));
#322 = CARTESIAN_POINT('',(-1.222028134448,-0.377173361273));
#323 = CARTESIAN_POINT('',(-1.208489074755,-0.405612192727));
#324 = CARTESIAN_POINT('',(-1.176847189606,-0.469425032149));
#325 = CARTESIAN_POINT('',(-1.158553553229,-0.504515031027));
#326 = CARTESIAN_POINT('',(-1.139777454785,-0.539067605755));
#327 = CARTESIAN_POINT('',(-1.120626268845,-0.573079633938));
#328 = CARTESIAN_POINT('',(-1.101156268491,-0.606584682963));
#329 = CARTESIAN_POINT('',(-1.081380825683,-0.639646564778));
#330 = CARTESIAN_POINT('',(-1.06127755806,-0.672352159906));
#331 = CARTESIAN_POINT('',(-0.977313732806,-0.805375714578));
#332 = CARTESIAN_POINT('',(-0.911115987993,-0.902031436524));
#333 = CARTESIAN_POINT('',(-0.842354499749,-0.995498326855));
#334 = CARTESIAN_POINT('',(-0.770598060765,-1.085536819787));
#335 = CARTESIAN_POINT('',(-0.695501321714,-1.171480660809));
#336 = CARTESIAN_POINT('',(-0.616635028315,-1.25195764905));
#337 = CARTESIAN_POINT('',(-0.533562770479,-1.325035895863));
#338 = CARTESIAN_POINT('',(-0.426464052449,-1.401877091904));
#339 = CARTESIAN_POINT('',(-0.406932268022,-1.415239566535));
#340 = CARTESIAN_POINT('',(-0.387173050816,-1.42808132016));
#341 = CARTESIAN_POINT('',(-0.367189432118,-1.440367313943));
#342 = CARTESIAN_POINT('',(-0.346984008781,-1.452062664802));
#343 = CARTESIAN_POINT('',(-0.326558943223,-1.463132645409));
#344 = CARTESIAN_POINT('',(-0.305915963428,-1.473542684191));
#345 = CARTESIAN_POINT('',(-0.25095259567,-1.499142721729));
#346 = CARTESIAN_POINT('',(-0.216206677142,-1.513200449563));
#347 = CARTESIAN_POINT('',(-0.180930507711,-1.525217820957));
#348 = CARTESIAN_POINT('',(-0.145226909818,-1.535020866465));
#349 = CARTESIAN_POINT('',(-0.109191825217,-1.542475340326));
#350 = CARTESIAN_POINT('',(-7.29165121946E-02,-1.547486685715));
#351 = CARTESIAN_POINT('',(-3.648974278746E-02,-1.55));
#352 = CARTESIAN_POINT('',(0.,-1.55));
#353 = ( GEOMETRIC_REPRESENTATION_CONTEXT(2) 
PARAMETRIC_REPRESENTATION_CONTEXT() REPRESENTATION_CONTEXT('2D SPACE',''
  ) );
#354 = ORIENTED_EDGE('',*,*,#355,.T.);
#355 = EDGE_CURVE('',#205,#356,#358,.T.);
#356 = VERTEX_POINT('',#357);
#357 = CARTESIAN_POINT('',(-9.60313730334,0.,-1.55));
#358 = SURFACE_CURVE('',#359,(#404,#452),.PCURVE_S1.);
#359 = B_SPLINE_CURVE_WITH_KNOTS('',8,(#360,#361,#362,#363,#364,#365,
    #366,#367,#368,#369,#370,#371,#372,#373,#374,#375,#376,#377,#378,
    #379,#380,#381,#382,#383,#384,#385,#386,#387,#388,#389,#390,#391,
    #392,#393,#394,#395,#396,#397,#398,#399,#400,#401,#402,#403),
  .UNSPECIFIED.,.F.,.F.,(9,7,7,7,7,7,9),(0.,0.14966547606,0.247233731231
    ,0.669436815136,0.881964458072,0.939454220255,1.),.UNSPECIFIED.);
#360 = CARTESIAN_POINT('',(-8.4,-1.55,0.));
#361 = CARTESIAN_POINT('',(-8.4,-1.55,-5.70988181527E-02));
#362 = CARTESIAN_POINT('',(-8.402328757712,-1.547596086395,
    -0.114102909642));
#363 = CARTESIAN_POINT('',(-8.406972766945,-1.542802308602,
    -0.170767925434));
#364 = CARTESIAN_POINT('',(-8.413881743909,-1.535669212741,
    -0.226850803965));
#365 = CARTESIAN_POINT('',(-8.422968826112,-1.526283871732,
    -0.282112290305));
#366 = CARTESIAN_POINT('',(-8.434110771258,-1.514769915395,
    -0.336319455326));
#367 = CARTESIAN_POINT('',(-8.447148156149,-1.501287560555,
    -0.389248214862));
#368 = CARTESIAN_POINT('',(-8.471493030406,-1.476089475384,
    -0.474218500047));
#369 = CARTESIAN_POINT('',(-8.48183271834,-1.465382365143,
    -0.507151372581));
#370 = CARTESIAN_POINT('',(-8.492865559031,-1.453951246584,
    -0.539466799555));
#371 = CARTESIAN_POINT('',(-8.504552155681,-1.441835289624,-0.5711486692
    ));
#372 = CARTESIAN_POINT('',(-8.516852795054,-1.429073897926,
    -0.602182424898));
#373 = CARTESIAN_POINT('',(-8.529727447468,-1.415706708901,
    -0.632555065186));
#374 = CARTESIAN_POINT('',(-8.543135766802,-1.401773593707,
    -0.662255143756));
#375 = CARTESIAN_POINT('',(-8.617191714778,-1.32474709824,
    -0.816839543547));
#376 = CARTESIAN_POINT('',(-8.686623026605,-1.252285679138,
    -0.929721934736));
#377 = CARTESIAN_POINT('',(-8.762656260812,-1.172545463261,
    -1.030316122965));
#378 = CARTESIAN_POINT('',(-8.843241649576,-1.08741299181,
    -1.119388924667));
#379 = CARTESIAN_POINT('',(-8.926904326026,-0.998228411304,
    -1.197821489782));
#380 = CARTESIAN_POINT('',(-9.012496600808,-0.905653867259,
    -1.26652778177));
#381 = CARTESIAN_POINT('',(-9.09937248825,-0.809930564383,
    -1.326295314772));
#382 = CARTESIAN_POINT('',(-9.230034906042,-0.660260279954,
    -1.403472686291));
#383 = CARTESIAN_POINT('',(-9.272641906395,-0.610494079414,
    -1.426497225326));
#384 = CARTESIAN_POINT('',(-9.314802254324,-0.560094628412,
    -1.447472514512));
#385 = CARTESIAN_POINT('',(-9.35691678304,-0.508262556534,
    -1.466720949509));
#386 = CARTESIAN_POINT('',(-9.398874654227,-0.45454364901,
    -1.484228705749));
#387 = CARTESIAN_POINT('',(-9.439864166049,-0.398975220362,
    -1.499720855602));
#388 = CARTESIAN_POINT('',(-9.478281300529,-0.341955750941,
    -1.51296853213));
#389 = CARTESIAN_POINT('',(-9.521303404831,-0.267982427524,
    -1.526742307501));
#390 = CARTESIAN_POINT('',(-9.530188652483,-0.252043472484,
    -1.529517537489));
#391 = CARTESIAN_POINT('',(-9.538759491404,-0.235906992084,
    -1.532130539907));
#392 = CARTESIAN_POINT('',(-9.546969619552,-0.219564147755,
    -1.53457564528));
#393 = CARTESIAN_POINT('',(-9.554766196208,-0.203005590616,
    -1.536846379511));
#394 = CARTESIAN_POINT('',(-9.562089841973,-0.186221461478,
    -1.53893546389));
#395 = CARTESIAN_POINT('',(-9.568874638768,-0.169201390842,
    -1.540834815085));
#396 = CARTESIAN_POINT('',(-9.581549788848,-0.133749740491,
    -1.544326681932));
#397 = CARTESIAN_POINT('',(-9.587405669759,-0.115201758127,
    -1.545906026979));
#398 = CARTESIAN_POINT('',(-9.592480913511,-9.638327433117E-02,
    -1.547248888489));
#399 = CARTESIAN_POINT('',(-9.596665555187,-7.736185215303E-02,
    -1.548338602448));
#400 = CARTESIAN_POINT('',(-9.599873938394,-5.818492983093E-02,
    -1.549164502717));
#401 = CARTESIAN_POINT('',(-9.602044129655,-3.888485544786E-02,
    -1.549719891122));
#402 = CARTESIAN_POINT('',(-9.603137332798,-1.948392158919E-02,
    -1.550000007542));
#403 = CARTESIAN_POINT('',(-9.60313730334,5.999999999062E-07,-1.55));
#404 = PCURVE('',#129,#405);
#405 = DEFINITIONAL_REPRESENTATION('',(#406),#451);
#406 = B_SPLINE_CURVE_WITH_KNOTS('',8,(#407,#408,#409,#410,#411,#412,
    #413,#414,#415,#416,#417,#418,#419,#420,#421,#422,#423,#424,#425,
    #426,#427,#428,#429,#430,#431,#432,#433,#434,#435,#436,#437,#438,
    #439,#440,#441,#442,#443,#444,#445,#446,#447,#448,#449,#450),
  .UNSPECIFIED.,.F.,.F.,(9,7,7,7,7,7,9),(0.,0.14966547606,0.247233731231
    ,0.669436815136,0.881964458072,0.939454220255,1.),.UNSPECIFIED.);
#407 = CARTESIAN_POINT('',(3.14159265359,-8.4));
#408 = CARTESIAN_POINT('',(3.178430600785,-8.4));
#409 = CARTESIAN_POINT('',(3.215207423234,-8.402328757712));
#410 = CARTESIAN_POINT('',(3.251841685067,-8.406972766945));
#411 = CARTESIAN_POINT('',(3.288251663057,-8.413881743909));
#412 = CARTESIAN_POINT('',(3.324353180362,-8.422968826112));
#413 = CARTESIAN_POINT('',(3.36005744026,-8.434110771258));
#414 = CARTESIAN_POINT('',(3.395268859895,-8.447148156149));
#415 = CARTESIAN_POINT('',(3.452448107277,-8.471493030406));
#416 = CARTESIAN_POINT('',(3.474782287099,-8.48183271834));
#417 = CARTESIAN_POINT('',(3.496884847843,-8.492865559031));
#418 = CARTESIAN_POINT('',(3.518754647225,-8.504552155681));
#419 = CARTESIAN_POINT('',(3.540389996314,-8.516852795054));
#420 = CARTESIAN_POINT('',(3.561788659528,-8.529727447468));
#421 = CARTESIAN_POINT('',(3.582947854636,-8.543135766802));
#422 = CARTESIAN_POINT('',(3.694374919134,-8.617191714778));
#423 = CARTESIAN_POINT('',(3.780408013683,-8.686623026605));
#424 = CARTESIAN_POINT('',(3.862568122997,-8.762656260812));
#425 = CARTESIAN_POINT('',(3.941421502796,-8.843241649576));
#426 = CARTESIAN_POINT('',(4.017499507375,-8.926904326026));
#427 = CARTESIAN_POINT('',(4.091472940808,-9.012496600808));
#428 = CARTESIAN_POINT('',(4.164034410799,-9.09937248825));
#429 = CARTESIAN_POINT('',(4.27267761957,-9.230034906042));
#430 = CARTESIAN_POINT('',(4.3080223182,-9.272641906395));
#431 = CARTESIAN_POINT('',(4.343197219256,-9.314802254324));
#432 = CARTESIAN_POINT('',(4.37881343772,-9.35691678304));
#433 = CARTESIAN_POINT('',(4.415199831652,-9.398874654227));
#434 = CARTESIAN_POINT('',(4.452358958805,-9.439864166049));
#435 = CARTESIAN_POINT('',(4.49008871512,-9.478281300529));
#436 = CARTESIAN_POINT('',(4.538633702528,-9.521303404831));
#437 = CARTESIAN_POINT('',(4.549070932398,-9.530188652483));
#438 = CARTESIAN_POINT('',(4.559615934,-9.538759491404));
#439 = CARTESIAN_POINT('',(4.570275460516,-9.546969619552));
#440 = CARTESIAN_POINT('',(4.581056699095,-9.554766196208));
#441 = CARTESIAN_POINT('',(4.59196727085,-9.562089841973));
#442 = CARTESIAN_POINT('',(4.603015230861,-9.568874638768));
#443 = CARTESIAN_POINT('',(4.62599794297,-9.581549788848));
#444 = CARTESIAN_POINT('',(4.638006613453,-9.587405669759));
#445 = CARTESIAN_POINT('',(4.650176548651,-9.592480913511));
#446 = CARTESIAN_POINT('',(4.662466144187,-9.596665555187));
#447 = CARTESIAN_POINT('',(4.674847291818,-9.599873938394));
#448 = CARTESIAN_POINT('',(4.687301948992,-9.602044129655));
#449 = CARTESIAN_POINT('',(4.699818708392,-9.603137332798));
#450 = CARTESIAN_POINT('',(4.712389367481,-9.60313730334));
#451 = ( GEOMETRIC_REPRESENTATION_CONTEXT(2) 
PARAMETRIC_REPRESENTATION_CONTEXT() REPRESENTATION_CONTEXT('2D SPACE',''
  ) );
#452 = PCURVE('',#302,#453);
#453 = DEFINITIONAL_REPRESENTATION('',(#454),#499);
#454 = B_SPLINE_CURVE_WITH_KNOTS('',8,(#455,#456,#457,#458,#459,#460,
    #461,#462,#463,#464,#465,#466,#467,#468,#469,#470,#471,#472,#473,
    #474,#475,#476,#477,#478,#479,#480,#481,#482,#483,#484,#485,#486,
    #487,#488,#489,#490,#491,#492,#493,#494,#495,#496,#497,#498),
  .UNSPECIFIED.,.F.,.F.,(9,7,7,7,7,7,9),(0.,0.14966547606,0.247233731231
    ,0.669436815136,0.881964458072,0.939454220255,1.),.UNSPECIFIED.);
#455 = CARTESIAN_POINT('',(-6.28318530718,-1.55));
#456 = CARTESIAN_POINT('',(-6.247498545834,-1.55));
#457 = CARTESIAN_POINT('',(-6.211871013673,-1.547596086395));
#458 = CARTESIAN_POINT('',(-6.176386098212,-1.542802308602));
#459 = CARTESIAN_POINT('',(-6.141127471077,-1.535669212741));
#460 = CARTESIAN_POINT('',(-6.106181061376,-1.526283871732));
#461 = CARTESIAN_POINT('',(-6.071637029063,-1.514769915395));
#462 = CARTESIAN_POINT('',(-6.03759173831,-1.501287560555));
#463 = CARTESIAN_POINT('',(-5.982348588752,-1.476089475384));
#464 = CARTESIAN_POINT('',(-5.960781750318,-1.465382365143));
#465 = CARTESIAN_POINT('',(-5.939450790059,-1.453951246584));
#466 = CARTESIAN_POINT('',(-5.918357802478,-1.441835289624));
#467 = CARTESIAN_POINT('',(-5.897505402087,-1.429073897926));
#468 = CARTESIAN_POINT('',(-5.876896723412,-1.415706708901));
#469 = CARTESIAN_POINT('',(-5.856535420993,-1.401773593707));
#470 = CARTESIAN_POINT('',(-5.749405571173,-1.32474709824));
#471 = CARTESIAN_POINT('',(-5.66703033885,-1.252285679138));
#472 = CARTESIAN_POINT('',(-5.58879331972,-1.172545463261));
#473 = CARTESIAN_POINT('',(-5.514267413683,-1.08741299181));
#474 = CARTESIAN_POINT('',(-5.443033727831,-0.998228411304));
#475 = CARTESIAN_POINT('',(-5.374751285327,-0.905653867259));
#476 = CARTESIAN_POINT('',(-5.309002681669,-0.809930564383));
#477 = CARTESIAN_POINT('',(-5.214156972055,-0.660260279954));
#478 = CARTESIAN_POINT('',(-5.183909993062,-0.610494079414));
#479 = CARTESIAN_POINT('',(-5.154506266807,-0.560094628412));
#480 = CARTESIAN_POINT('',(-5.12559679214,-0.508262556534));
#481 = CARTESIAN_POINT('',(-5.097214626073,-0.45454364901));
#482 = CARTESIAN_POINT('',(-5.069847281563,-0.398975220362));
#483 = CARTESIAN_POINT('',(-5.044455301997,-0.341955750941));
#484 = CARTESIAN_POINT('',(-5.016222049588,-0.267982427524));
#485 = CARTESIAN_POINT('',(-5.010404345437,-0.252043472484));
#486 = CARTESIAN_POINT('',(-5.004804364107,-0.235906992084));
#487 = CARTESIAN_POINT('',(-4.99945051002,-0.219564147755));
#488 = CARTESIAN_POINT('',(-4.994375344091,-0.203005590616));
#489 = CARTESIAN_POINT('',(-4.989615583731,-0.186221461478));
#490 = CARTESIAN_POINT('',(-4.985212102839,-0.169201390842));
#491 = CARTESIAN_POINT('',(-4.976995014993,-0.133749740491));
#492 = CARTESIAN_POINT('',(-4.973204372717,-0.115201758127));
#493 = CARTESIAN_POINT('',(-4.969923238684,-9.638327433117E-02));
#494 = CARTESIAN_POINT('',(-4.967220639519,-7.736185215303E-02));
#495 = CARTESIAN_POINT('',(-4.965150033454,-5.818492983093E-02));
#496 = CARTESIAN_POINT('',(-4.963749949017,-3.888485544786E-02));
#497 = CARTESIAN_POINT('',(-4.963044623716,-1.948392158919E-02));
#498 = CARTESIAN_POINT('',(-4.963044642721,5.999999999062E-07));
#499 = ( GEOMETRIC_REPRESENTATION_CONTEXT(2) 
PARAMETRIC_REPRESENTATION_CONTEXT() REPRESENTATION_CONTEXT('2D SPACE',''
  ) );
#500 = ORIENTED_EDGE('',*,*,#501,.F.);
#501 = EDGE_CURVE('',#502,#356,#504,.T.);
#502 = VERTEX_POINT('',#503);
#503 = CARTESIAN_POINT('',(-10.39686269666,0.,-1.55));
#504 = SURFACE_CURVE('',#505,(#509,#515),.PCURVE_S1.);
#505 = LINE('',#506,#507);
#506 = CARTESIAN_POINT('',(0.,0.,-1.55));
#507 = VECTOR('',#508,1.);
#508 = DIRECTION('',(1.,0.,0.));
#509 = PCURVE('',#129,#510);
#510 = DEFINITIONAL_REPRESENTATION('',(#511),#514);
#511 = B_SPLINE_CURVE_WITH_KNOTS('',1,(#512,#513),.UNSPECIFIED.,.F.,.F.,
  (2,2),(-11.92,-8.08),.PIECEWISE_BEZIER_KNOTS.);
#512 = CARTESIAN_POINT('',(4.712388980385,-11.92));
#513 = CARTESIAN_POINT('',(4.712388980385,-8.08));
#514 = ( GEOMETRIC_REPRESENTATION_CONTEXT(2) 
PARAMETRIC_REPRESENTATION_CONTEXT() REPRESENTATION_CONTEXT('2D SPACE',''
  ) );
#515 = PCURVE('',#516,#521);
#516 = PLANE('',#517);
#517 = AXIS2_PLACEMENT_3D('',#518,#519,#520);
#518 = CARTESIAN_POINT('',(-10.,0.,4.151676440012E-17));
#519 = DIRECTION('',(-0.,-1.,-0.));
#520 = DIRECTION('',(0.,0.,-1.));
#521 = DEFINITIONAL_REPRESENTATION('',(#522),#525);
#522 = B_SPLINE_CURVE_WITH_KNOTS('',1,(#523,#524),.UNSPECIFIED.,.F.,.F.,
  (2,2),(-11.92,-8.08),.PIECEWISE_BEZIER_KNOTS.);
#523 = CARTESIAN_POINT('',(1.55,-1.92));
#524 = CARTESIAN_POINT('',(1.55,1.92));
#525 = ( GEOMETRIC_REPRESENTATION_CONTEXT(2) 
PARAMETRIC_REPRESENTATION_CONTEXT() REPRESENTATION_CONTEXT('2D SPACE',''
  ) );
#526 = ORIENTED_EDGE('',*,*,#527,.F.);
#527 = EDGE_CURVE('',#528,#502,#530,.T.);
#528 = VERTEX_POINT('',#529);
#529 = CARTESIAN_POINT('',(-10.39686269666,0.,1.55));
#530 = SURFACE_CURVE('',#531,(#618,#708),.PCURVE_S1.);
#531 = B_SPLINE_CURVE_WITH_KNOTS('',8,(#532,#533,#534,#535,#536,#537,
    #538,#539,#540,#541,#542,#543,#544,#545,#546,#547,#548,#549,#550,
    #551,#552,#553,#554,#555,#556,#557,#558,#559,#560,#561,#562,#563,
    #564,#565,#566,#567,#568,#569,#570,#571,#572,#573,#574,#575,#576,
    #577,#578,#579,#580,#581,#582,#583,#584,#585,#586,#587,#588,#589,
    #590,#591,#592,#593,#594,#595,#596,#597,#598,#599,#600,#601,#602,
    #603,#604,#605,#606,#607,#608,#609,#610,#611,#612,#613,#614,#615,
    #616,#617),.UNSPECIFIED.,.F.,.F.,(9,7,7,7,7,7,7,7,7,7,7,7,9),(0.,
    3.830741954278E-02,9.29395990136E-02,0.161797254522,0.375198730931,
    0.422111496804,0.498810124587,0.573820947249,0.622721169753,
    0.834325084315,0.940841788979,0.969655076206,1.),.UNSPECIFIED.);
#532 = CARTESIAN_POINT('',(-10.39686269666,6.000000010165E-07,1.55));
#533 = CARTESIAN_POINT('',(-10.39686265851,-2.52298063343E-02,
    1.550000009766));
#534 = CARTESIAN_POINT('',(-10.39869569349,-5.022007493912E-02,
    1.549530628181));
#535 = CARTESIAN_POINT('',(-10.40230112767,-7.497918113491E-02,
    1.548607614684));
#536 = CARTESIAN_POINT('',(-10.40757431643,-9.949810461697E-02,
    1.547244480508));
#537 = CARTESIAN_POINT('',(-10.41436474911,-0.123738121705,
    1.545456125066));
#538 = CARTESIAN_POINT('',(-10.42247460003,-0.147619594455,
    1.543264644381));
#539 = CARTESIAN_POINT('',(-10.43165772572,-0.171011256635,
    1.540707311563));
#540 = CARTESIAN_POINT('',(-10.45582554856,-0.226106097491,
    1.533767106029));
#541 = CARTESIAN_POINT('',(-10.47188835149,-0.257725844512,
    1.528992185235));
#542 = CARTESIAN_POINT('',(-10.48935615644,-0.288612667196,
    1.523574925206));
#543 = CARTESIAN_POINT('',(-10.5078503337,-0.31878616233,1.517562601931)
  );
#544 = CARTESIAN_POINT('',(-10.52708276459,-0.348280653084,
    1.510996759693));
#545 = CARTESIAN_POINT('',(-10.54687076571,-0.377173361273,
    1.503903847169));
#546 = CARTESIAN_POINT('',(-10.56714915761,-0.405612192727,
    1.496276539032));
#547 = CARTESIAN_POINT('',(-10.61423373011,-0.469425032149,
    1.477671759922));
#548 = CARTESIAN_POINT('',(-10.64124633898,-0.504515031027,
    1.466386144404));
#549 = CARTESIAN_POINT('',(-10.66872817664,-0.539067605755,
    1.454223871674));
#550 = CARTESIAN_POINT('',(-10.69648625378,-0.573079633939,
    1.441211849587));
#551 = CARTESIAN_POINT('',(-10.72440680817,-0.606584682963,
    1.427360404008));
#552 = CARTESIAN_POINT('',(-10.75243900021,-0.639646564778,
    1.412656354309));
#553 = CARTESIAN_POINT('',(-10.78057921564,-0.672352159906,
    1.397057679116));
#554 = CARTESIAN_POINT('',(-10.89649041764,-0.805375714578,
    1.329143037355));
#555 = CARTESIAN_POINT('',(-10.9841504811,-0.902031436525,1.269240306201
    ));
#556 = CARTESIAN_POINT('',(-11.07052888772,-0.995498326854,
    1.200272233471));
#557 = CARTESIAN_POINT('',(-11.15497852494,-1.085536819788,
    1.121434959487));
#558 = CARTESIAN_POINT('',(-11.23632397396,-1.171480660808,
    1.031790833822));
#559 = CARTESIAN_POINT('',(-11.31305947448,-1.25195764905,0.930436948268
    ));
#560 = CARTESIAN_POINT('',(-11.38308360111,-1.325035895863,
    0.816586436454));
#561 = CARTESIAN_POINT('',(-11.45696427673,-1.401877097244,0.6619733824)
  );
#562 = CARTESIAN_POINT('',(-11.4698234044,-1.415239568997,0.633482655473
    ));
#563 = CARTESIAN_POINT('',(-11.48219150222,-1.428081318049,
    0.604373411339));
#564 = CARTESIAN_POINT('',(-11.49403310975,-1.440367309543,
    0.574655446989));
#565 = CARTESIAN_POINT('',(-11.5053129911,-1.45206266184,0.544339877614)
  );
#566 = CARTESIAN_POINT('',(-11.51599613488,-1.46313264651,0.513439136612
    ));
#567 = CARTESIAN_POINT('',(-11.52604775423,-1.473542688339,
    0.481966975584));
#568 = CARTESIAN_POINT('',(-11.55077788351,-1.499142721729,
    0.397574404848));
#569 = CARTESIAN_POINT('',(-11.56437050803,-1.513200449563,
    0.343626355143));
#570 = CARTESIAN_POINT('',(-11.5759990097,-1.525217820957,0.288319320348
    ));
#571 = CARTESIAN_POINT('',(-11.58549028083,-1.535020866465,
    0.231890889784));
#572 = CARTESIAN_POINT('',(-11.59271048155,-1.542475340326,
    0.174588461198));
#573 = CARTESIAN_POINT('',(-11.59756526458,-1.547486685715,
    0.116666464994));
#574 = CARTESIAN_POINT('',(-11.6,-1.55,5.838358845993E-02));
#575 = CARTESIAN_POINT('',(-11.6,-1.55,-5.70988181527E-02));
#576 = CARTESIAN_POINT('',(-11.59767124228,-1.547596086395,
    -0.114102909642));
#577 = CARTESIAN_POINT('',(-11.59302723305,-1.542802308602,
    -0.170767925434));
#578 = CARTESIAN_POINT('',(-11.58611825609,-1.535669212741,
    -0.226850803965));
#579 = CARTESIAN_POINT('',(-11.57703117388,-1.526283871732,
    -0.282112290305));
#580 = CARTESIAN_POINT('',(-11.56588922874,-1.514769915395,
    -0.336319455326));
#581 = CARTESIAN_POINT('',(-11.55285184385,-1.501287560555,
    -0.389248214862));
#582 = CARTESIAN_POINT('',(-11.5285069696,-1.476089475392,
    -0.474218500022));
#583 = CARTESIAN_POINT('',(-11.51816728166,-1.465382365145,
    -0.507151372569));
#584 = CARTESIAN_POINT('',(-11.50713444096,-1.453951246578,
    -0.539466799565));
#585 = CARTESIAN_POINT('',(-11.49544784431,-1.441835289616,
    -0.57114866922));
#586 = CARTESIAN_POINT('',(-11.48314720494,-1.429073897922,
    -0.602182424911));
#587 = CARTESIAN_POINT('',(-11.47027255253,-1.415706708905,
    -0.632555065181));
#588 = CARTESIAN_POINT('',(-11.4568642332,-1.401773593716,
    -0.662255143736));
#589 = CARTESIAN_POINT('',(-11.38280828522,-1.32474709824,
    -0.816839543547));
#590 = CARTESIAN_POINT('',(-11.31337697339,-1.252285679138,
    -0.929721934736));
#591 = CARTESIAN_POINT('',(-11.23734373918,-1.172545463261,
    -1.030316122965));
#592 = CARTESIAN_POINT('',(-11.15675835042,-1.087412991811,
    -1.119388924667));
#593 = CARTESIAN_POINT('',(-11.07309567397,-0.998228411304,
    -1.197821489782));
#594 = CARTESIAN_POINT('',(-10.98750339919,-0.90565386726,
    -1.266527781769));
#595 = CARTESIAN_POINT('',(-10.90062751175,-0.809930564383,
    -1.326295314772));
#596 = CARTESIAN_POINT('',(-10.76996509395,-0.660260279955,
    -1.403472686291));
#597 = CARTESIAN_POINT('',(-10.7273580936,-0.610494079409,
    -1.426497225328));
#598 = CARTESIAN_POINT('',(-10.68519774567,-0.560094628416,
    -1.44747251451));
#599 = CARTESIAN_POINT('',(-10.64308321695,-0.508262556533,
    -1.466720949509));
#600 = CARTESIAN_POINT('',(-10.60112534577,-0.454543649016,
    -1.484228705748));
#601 = CARTESIAN_POINT('',(-10.56013583394,-0.398975220358,
    -1.499720855603));
#602 = CARTESIAN_POINT('',(-10.52171869947,-0.34195575094,-1.51296853213
    ));
#603 = CARTESIAN_POINT('',(-10.47869659516,-0.267982427524,
    -1.526742307501));
#604 = CARTESIAN_POINT('',(-10.46981134751,-0.252043472484,
    -1.529517537489));
#605 = CARTESIAN_POINT('',(-10.46124050859,-0.235906992084,
    -1.532130539907));
#606 = CARTESIAN_POINT('',(-10.45303038044,-0.219564147755,
    -1.53457564528));
#607 = CARTESIAN_POINT('',(-10.44523380379,-0.203005590616,
    -1.536846379511));
#608 = CARTESIAN_POINT('',(-10.43791015802,-0.186221461478,
    -1.53893546389));
#609 = CARTESIAN_POINT('',(-10.43112536123,-0.169201390842,
    -1.540834815085));
#610 = CARTESIAN_POINT('',(-10.41845021297,-0.133749745596,
    -1.544326681429));
#611 = CARTESIAN_POINT('',(-10.41259433006,-0.115201754885,
    -1.545906027023));
#612 = CARTESIAN_POINT('',(-10.40751908513,-9.63832690209E-02,
    -1.54724888886));
#613 = CARTESIAN_POINT('',(-10.40333444405,-7.736185238123E-02,
    -1.548338602657));
#614 = CARTESIAN_POINT('',(-10.40012606213,-5.818493539603E-02,
    -1.549164502575));
#615 = CARTESIAN_POINT('',(-10.39795587127,-3.88848584787E-02,
    -1.549719890869));
#616 = CARTESIAN_POINT('',(-10.3968626672,-1.948391595633E-02,
    -1.550000007542));
#617 = CARTESIAN_POINT('',(-10.39686269666,5.999999999062E-07,-1.55));
#618 = PCURVE('',#129,#619);
#619 = DEFINITIONAL_REPRESENTATION('',(#620),#707);
#620 = B_SPLINE_CURVE_WITH_KNOTS('',8,(#621,#622,#623,#624,#625,#626,
    #627,#628,#629,#630,#631,#632,#633,#634,#635,#636,#637,#638,#639,
    #640,#641,#642,#643,#644,#645,#646,#647,#648,#649,#650,#651,#652,
    #653,#654,#655,#656,#657,#658,#659,#660,#661,#662,#663,#664,#665,
    #666,#667,#668,#669,#670,#671,#672,#673,#674,#675,#676,#677,#678,
    #679,#680,#681,#682,#683,#684,#685,#686,#687,#688,#689,#690,#691,
    #692,#693,#694,#695,#696,#697,#698,#699,#700,#701,#702,#703,#704,
    #705,#706),.UNSPECIFIED.,.F.,.F.,(9,7,7,7,7,7,7,7,7,7,7,7,9),(0.,
    3.830741954278E-02,9.29395990136E-02,0.161797254522,0.375198730931,
    0.422111496804,0.498810124587,0.573820947249,0.622721169753,
    0.834325084315,0.940841788979,0.969655076206,1.),.UNSPECIFIED.);
#621 = CARTESIAN_POINT('',(1.570795939698,-10.39686269666));
#622 = CARTESIAN_POINT('',(1.587073621204,-10.39686265851));
#623 = CARTESIAN_POINT('',(1.603196369507,-10.39869569349));
#624 = CARTESIAN_POINT('',(1.619176574225,-10.40230112767));
#625 = CARTESIAN_POINT('',(1.635014411244,-10.40757431643));
#626 = CARTESIAN_POINT('',(1.650690580537,-10.41436474911));
#627 = CARTESIAN_POINT('',(1.666158801507,-10.42247460003));
#628 = CARTESIAN_POINT('',(1.681338065846,-10.43165772572));
#629 = CARTESIAN_POINT('',(1.717164029387,-10.45582554856));
#630 = CARTESIAN_POINT('',(1.737788972161,-10.47188835149));
#631 = CARTESIAN_POINT('',(1.758010638065,-10.48935615644));
#632 = CARTESIAN_POINT('',(1.777849866776,-10.5078503337));
#633 = CARTESIAN_POINT('',(1.797335022475,-10.52708276459));
#634 = CARTESIAN_POINT('',(1.816521543267,-10.54687076571));
#635 = CARTESIAN_POINT('',(1.835513193374,-10.56714915761));
#636 = CARTESIAN_POINT('',(1.878396847804,-10.61423373011));
#637 = CARTESIAN_POINT('',(1.902168625081,-10.64124633898));
#638 = CARTESIAN_POINT('',(1.925786701067,-10.66872817664));
#639 = CARTESIAN_POINT('',(1.949264032377,-10.69648625378));
#640 = CARTESIAN_POINT('',(1.972638115097,-10.72440680817));
#641 = CARTESIAN_POINT('',(1.995969081184,-10.75243900021));
#642 = CARTESIAN_POINT('',(2.019337957291,-10.78057921564));
#643 = CARTESIAN_POINT('',(2.115697638721,-10.89649041764));
#644 = CARTESIAN_POINT('',(2.188809848049,-10.9841504811));
#645 = CARTESIAN_POINT('',(2.263337724102,-11.07052888772));
#646 = CARTESIAN_POINT('',(2.339989773326,-11.15497852494));
#647 = CARTESIAN_POINT('',(2.419456614691,-11.23632397396));
#648 = CARTESIAN_POINT('',(2.502279773492,-11.31305947448));
#649 = CARTESIAN_POINT('',(2.58903959102,-11.38308360111));
#650 = CARTESIAN_POINT('',(2.70042994665,-11.45696427673));
#651 = CARTESIAN_POINT('',(2.720727102115,-11.4698234044));
#652 = CARTESIAN_POINT('',(2.741244401474,-11.48219150222));
#653 = CARTESIAN_POINT('',(2.761979597961,-11.49403310975));
#654 = CARTESIAN_POINT('',(2.782930896249,-11.5053129911));
#655 = CARTESIAN_POINT('',(2.804096952448,-11.51599613488));
#656 = CARTESIAN_POINT('',(2.825476874108,-11.52604775423));
#657 = CARTESIAN_POINT('',(2.882373617594,-11.55077788351));
#658 = CARTESIAN_POINT('',(2.918312868315,-11.56437050803));
#659 = CARTESIAN_POINT('',(2.954776019333,-11.5759990097));
#660 = CARTESIAN_POINT('',(2.991661058474,-11.58549028083));
#661 = CARTESIAN_POINT('',(3.028873501404,-11.59271048155));
#662 = CARTESIAN_POINT('',(3.066323978601,-11.59756526458));
#663 = CARTESIAN_POINT('',(3.103925822325,-11.6));
#664 = CARTESIAN_POINT('',(3.178430600785,-11.6));
#665 = CARTESIAN_POINT('',(3.215207423234,-11.59767124228));
#666 = CARTESIAN_POINT('',(3.251841685067,-11.59302723305));
#667 = CARTESIAN_POINT('',(3.288251663057,-11.58611825609));
#668 = CARTESIAN_POINT('',(3.324353180362,-11.57703117388));
#669 = CARTESIAN_POINT('',(3.36005744026,-11.56588922874));
#670 = CARTESIAN_POINT('',(3.395268859895,-11.55285184385));
#671 = CARTESIAN_POINT('',(3.45244810726,-11.5285069696));
#672 = CARTESIAN_POINT('',(3.474782287091,-11.51816728166));
#673 = CARTESIAN_POINT('',(3.49688484785,-11.50713444096));
#674 = CARTESIAN_POINT('',(3.518754647239,-11.49544784431));
#675 = CARTESIAN_POINT('',(3.540389996323,-11.48314720494));
#676 = CARTESIAN_POINT('',(3.561788659523,-11.47027255253));
#677 = CARTESIAN_POINT('',(3.582947854622,-11.4568642332));
#678 = CARTESIAN_POINT('',(3.694374919134,-11.38280828522));
#679 = CARTESIAN_POINT('',(3.780408013683,-11.31337697339));
#680 = CARTESIAN_POINT('',(3.862568122997,-11.23734373918));
#681 = CARTESIAN_POINT('',(3.941421502797,-11.15675835042));
#682 = CARTESIAN_POINT('',(4.017499507375,-11.07309567397));
#683 = CARTESIAN_POINT('',(4.091472940808,-10.98750339919));
#684 = CARTESIAN_POINT('',(4.164034410799,-10.90062751175));
#685 = CARTESIAN_POINT('',(4.272677619568,-10.76996509395));
#686 = CARTESIAN_POINT('',(4.308022318204,-10.7273580936));
#687 = CARTESIAN_POINT('',(4.343197219253,-10.68519774567));
#688 = CARTESIAN_POINT('',(4.37881343772,-10.64308321695));
#689 = CARTESIAN_POINT('',(4.415199831648,-10.60112534577));
#690 = CARTESIAN_POINT('',(4.452358958808,-10.56013583394));
#691 = CARTESIAN_POINT('',(4.490088715121,-10.52171869947));
#692 = CARTESIAN_POINT('',(4.538633702528,-10.47869659516));
#693 = CARTESIAN_POINT('',(4.549070932398,-10.46981134751));
#694 = CARTESIAN_POINT('',(4.559615934,-10.46124050859));
#695 = CARTESIAN_POINT('',(4.570275460516,-10.45303038044));
#696 = CARTESIAN_POINT('',(4.581056699095,-10.44523380379));
#697 = CARTESIAN_POINT('',(4.59196727085,-10.43791015802));
#698 = CARTESIAN_POINT('',(4.603015230861,-10.43112536123));
#699 = CARTESIAN_POINT('',(4.62599793966,-10.41845021297));
#700 = CARTESIAN_POINT('',(4.638006615545,-10.41259433006));
#701 = CARTESIAN_POINT('',(4.650176552088,-10.40751908513));
#702 = CARTESIAN_POINT('',(4.662466144046,-10.40333444405));
#703 = CARTESIAN_POINT('',(4.674847288224,-10.40012606213));
#704 = CARTESIAN_POINT('',(4.68730194703,-10.39795587127));
#705 = CARTESIAN_POINT('',(4.699818712026,-10.3968626672));
#706 = CARTESIAN_POINT('',(4.712389367481,-10.39686269666));
#707 = ( GEOMETRIC_REPRESENTATION_CONTEXT(2) 
PARAMETRIC_REPRESENTATION_CONTEXT() REPRESENTATION_CONTEXT('2D SPACE',''
  ) );
#708 = PCURVE('',#302,#709);
#709 = DEFINITIONAL_REPRESENTATION('',(#710),#797);
#710 = B_SPLINE_CURVE_WITH_KNOTS('',8,(#711,#712,#713,#714,#715,#716,
    #717,#718,#719,#720,#721,#722,#723,#724,#725,#726,#727,#728,#729,
    #730,#731,#732,#733,#734,#735,#736,#737,#738,#739,#740,#741,#742,
    #743,#744,#745,#746,#747,#748,#749,#750,#751,#752,#753,#754,#755,
    #756,#757,#758,#759,#760,#761,#762,#763,#764,#765,#766,#767,#768,
    #769,#770,#771,#772,#773,#774,#775,#776,#777,#778,#779,#780,#781,
    #782,#783,#784,#785,#786,#787,#788,#789,#790,#791,#792,#793,#794,
    #795,#796),.UNSPECIFIED.,.F.,.F.,(9,7,7,7,7,7,7,7,7,7,7,7,9),(0.,
    3.830741954278E-02,9.29395990136E-02,0.161797254522,0.375198730931,
    0.422111496804,0.498810124587,0.573820947249,0.622721169753,
    0.834325084315,0.940841788979,0.969655076206,1.),.UNSPECIFIED.);
#711 = CARTESIAN_POINT('',(-1.821451989131,5.999999999062E-07));
#712 = CARTESIAN_POINT('',(-1.821451964522,-2.52298063343E-02));
#713 = CARTESIAN_POINT('',(-1.822634565055,-5.022007493912E-02));
#714 = CARTESIAN_POINT('',(-1.824960659576,-7.497918113491E-02));
#715 = CARTESIAN_POINT('',(-1.828364714639,-9.949810461697E-02));
#716 = CARTESIAN_POINT('',(-1.832753325909,-0.123738121705));
#717 = CARTESIAN_POINT('',(-1.838003576771,-0.147619594455));
#718 = CARTESIAN_POINT('',(-1.84396122416,-0.171011256635));
#719 = CARTESIAN_POINT('',(-1.859676589277,-0.226106097491));
#720 = CARTESIAN_POINT('',(-1.870149607554,-0.257725844512));
#721 = CARTESIAN_POINT('',(-1.881578505262,-0.288612667196));
#722 = CARTESIAN_POINT('',(-1.893730545533,-0.31878616233));
#723 = CARTESIAN_POINT('',(-1.906429229045,-0.348280653084));
#724 = CARTESIAN_POINT('',(-1.919564519142,-0.377173361273));
#725 = CARTESIAN_POINT('',(-1.933103578835,-0.405612192727));
#726 = CARTESIAN_POINT('',(-1.964745463984,-0.469425032149));
#727 = CARTESIAN_POINT('',(-1.983039100361,-0.504515031027));
#728 = CARTESIAN_POINT('',(-2.001815198805,-0.539067605755));
#729 = CARTESIAN_POINT('',(-2.020966384745,-0.573079633939));
#730 = CARTESIAN_POINT('',(-2.040436385099,-0.606584682963));
#731 = CARTESIAN_POINT('',(-2.060211827907,-0.639646564778));
#732 = CARTESIAN_POINT('',(-2.080315095529,-0.672352159906));
#733 = CARTESIAN_POINT('',(-2.164278920783,-0.805375714578));
#734 = CARTESIAN_POINT('',(-2.230476665597,-0.902031436525));
#735 = CARTESIAN_POINT('',(-2.29923815384,-0.995498326854));
#736 = CARTESIAN_POINT('',(-2.370994592825,-1.085536819788));
#737 = CARTESIAN_POINT('',(-2.446091331875,-1.171480660808));
#738 = CARTESIAN_POINT('',(-2.524957625274,-1.25195764905));
#739 = CARTESIAN_POINT('',(-2.608029883111,-1.325035895863));
#740 = CARTESIAN_POINT('',(-2.715128608583,-1.401877097244));
#741 = CARTESIAN_POINT('',(-2.734660387862,-1.415239568997));
#742 = CARTESIAN_POINT('',(-2.754419598002,-1.428081318049));
#743 = CARTESIAN_POINT('',(-2.774403214037,-1.440367309543));
#744 = CARTESIAN_POINT('',(-2.794608641083,-1.45206266184));
#745 = CARTESIAN_POINT('',(-2.815033714335,-1.46313264651));
#746 = CARTESIAN_POINT('',(-2.835676699069,-1.473542688339));
#747 = CARTESIAN_POINT('',(-2.89064005792,-1.499142721729));
#748 = CARTESIAN_POINT('',(-2.925385976448,-1.513200449563));
#749 = CARTESIAN_POINT('',(-2.960662145879,-1.525217820957));
#750 = CARTESIAN_POINT('',(-2.996365743772,-1.535020866465));
#751 = CARTESIAN_POINT('',(-3.032400828373,-1.542475340326));
#752 = CARTESIAN_POINT('',(-3.068676141395,-1.547486685715));
#753 = CARTESIAN_POINT('',(-3.105102910802,-1.55));
#754 = CARTESIAN_POINT('',(-3.177279414935,-1.55));
#755 = CARTESIAN_POINT('',(-3.212906947096,-1.547596086395));
#756 = CARTESIAN_POINT('',(-3.248391862558,-1.542802308602));
#757 = CARTESIAN_POINT('',(-3.283650489692,-1.535669212741));
#758 = CARTESIAN_POINT('',(-3.318596899393,-1.526283871732));
#759 = CARTESIAN_POINT('',(-3.353140931707,-1.514769915395));
#760 = CARTESIAN_POINT('',(-3.387186222459,-1.501287560555));
#761 = CARTESIAN_POINT('',(-3.442429372001,-1.476089475392));
#762 = CARTESIAN_POINT('',(-3.463996210444,-1.465382365145));
#763 = CARTESIAN_POINT('',(-3.485327170717,-1.453951246578));
#764 = CARTESIAN_POINT('',(-3.506420158305,-1.441835289616));
#765 = CARTESIAN_POINT('',(-3.527272558691,-1.429073897922));
#766 = CARTESIAN_POINT('',(-3.547881237353,-1.415706708905));
#767 = CARTESIAN_POINT('',(-3.568242539763,-1.401773593716));
#768 = CARTESIAN_POINT('',(-3.675372389597,-1.32474709824));
#769 = CARTESIAN_POINT('',(-3.757747621919,-1.252285679138));
#770 = CARTESIAN_POINT('',(-3.835984641049,-1.172545463261));
#771 = CARTESIAN_POINT('',(-3.910510547087,-1.087412991811));
#772 = CARTESIAN_POINT('',(-3.981744232938,-0.998228411304));
#773 = CARTESIAN_POINT('',(-4.050026675442,-0.90565386726));
#774 = CARTESIAN_POINT('',(-4.115775279101,-0.809930564383));
#775 = CARTESIAN_POINT('',(-4.210620988713,-0.660260279955));
#776 = CARTESIAN_POINT('',(-4.24086796771,-0.610494079409));
#777 = CARTESIAN_POINT('',(-4.27027169396,-0.560094628416));
#778 = CARTESIAN_POINT('',(-4.299181168629,-0.508262556533));
#779 = CARTESIAN_POINT('',(-4.327563334695,-0.454543649016));
#780 = CARTESIAN_POINT('',(-4.354930679209,-0.398975220358));
#781 = CARTESIAN_POINT('',(-4.380322658772,-0.34195575094));
#782 = CARTESIAN_POINT('',(-4.408555911181,-0.267982427524));
#783 = CARTESIAN_POINT('',(-4.414373615332,-0.252043472484));
#784 = CARTESIAN_POINT('',(-4.419973596663,-0.235906992084));
#785 = CARTESIAN_POINT('',(-4.42532745075,-0.219564147755));
#786 = CARTESIAN_POINT('',(-4.430402616678,-0.203005590616));
#787 = CARTESIAN_POINT('',(-4.435162377039,-0.186221461478));
#788 = CARTESIAN_POINT('',(-4.43956585793,-0.169201390842));
#789 = CARTESIAN_POINT('',(-4.447782944593,-0.133749745596));
#790 = CARTESIAN_POINT('',(-4.451573588163,-0.115201754885));
#791 = CARTESIAN_POINT('',(-4.454854722965,-9.63832690209E-02));
#792 = CARTESIAN_POINT('',(-4.457557321743,-7.736185238123E-02));
#793 = CARTESIAN_POINT('',(-4.459627926975,-5.818493539603E-02));
#794 = CARTESIAN_POINT('',(-4.46102801115,-3.88848584787E-02));
#795 = CARTESIAN_POINT('',(-4.461733337053,-1.948391595633E-02));
#796 = CARTESIAN_POINT('',(-4.461733318048,5.999999999062E-07));
#797 = ( GEOMETRIC_REPRESENTATION_CONTEXT(2) 
PARAMETRIC_REPRESENTATION_CONTEXT() REPRESENTATION_CONTEXT('2D SPACE',''
  ) );
#798 = ORIENTED_EDGE('',*,*,#799,.T.);
#799 = EDGE_CURVE('',#528,#203,#800,.T.);
#800 = SURFACE_CURVE('',#801,(#805,#811),.PCURVE_S1.);
#801 = LINE('',#802,#803);
#802 = CARTESIAN_POINT('',(0.,0.,1.55));
#803 = VECTOR('',#804,1.);
#804 = DIRECTION('',(1.,0.,0.));
#805 = PCURVE('',#129,#806);
#806 = DEFINITIONAL_REPRESENTATION('',(#807),#810);
#807 = B_SPLINE_CURVE_WITH_KNOTS('',1,(#808,#809),.UNSPECIFIED.,.F.,.F.,
  (2,2),(-11.92,-8.08),.PIECEWISE_BEZIER_KNOTS.);
#808 = CARTESIAN_POINT('',(1.570796326795,-11.92));
#809 = CARTESIAN_POINT('',(1.570796326795,-8.08));
#810 = ( GEOMETRIC_REPRESENTATION_CONTEXT(2) 
PARAMETRIC_REPRESENTATION_CONTEXT() REPRESENTATION_CONTEXT('2D SPACE',''
  ) );
#811 = PCURVE('',#812,#817);
#812 = PLANE('',#813);
#813 = AXIS2_PLACEMENT_3D('',#814,#815,#816);
#814 = CARTESIAN_POINT('',(-10.,0.,4.151676440012E-17));
#815 = DIRECTION('',(-0.,-1.,-0.));
#816 = DIRECTION('',(0.,0.,-1.));
#817 = DEFINITIONAL_REPRESENTATION('',(#818),#821);
#818 = B_SPLINE_CURVE_WITH_KNOTS('',1,(#819,#820),.UNSPECIFIED.,.F.,.F.,
  (2,2),(-11.92,-8.08),.PIECEWISE_BEZIER_KNOTS.);
#819 = CARTESIAN_POINT('',(-1.55,-1.92));
#820 = CARTESIAN_POINT('',(-1.55,1.92));
#821 = ( GEOMETRIC_REPRESENTATION_CONTEXT(2) 
PARAMETRIC_REPRESENTATION_CONTEXT() REPRESENTATION_CONTEXT('2D SPACE',''
  ) );
#822 = ADVANCED_FACE('',(#823,#854),#165,.F.);
#823 = FACE_BOUND('',#824,.F.);
#824 = EDGE_LOOP('',(#825));
#825 = ORIENTED_EDGE('',*,*,#826,.T.);
#826 = EDGE_CURVE('',#827,#827,#829,.T.);
#827 = VERTEX_POINT('',#828);
#828 = CARTESIAN_POINT('',(0.,1.7,0.));
#829 = SURFACE_CURVE('',#830,(#835,#842),.PCURVE_S1.);
#830 = CIRCLE('',#831,1.7);
#831 = AXIS2_PLACEMENT_3D('',#832,#833,#834);
#832 = CARTESIAN_POINT('',(0.,0.,0.));
#833 = DIRECTION('',(1.,0.,0.));
#834 = DIRECTION('',(0.,1.,0.));
#835 = PCURVE('',#165,#836);
#836 = DEFINITIONAL_REPRESENTATION('',(#837),#841);
#837 = CIRCLE('',#838,1.7);
#838 = AXIS2_PLACEMENT_2D('',#839,#840);
#839 = CARTESIAN_POINT('',(0.,0.));
#840 = DIRECTION('',(1.,0.));
#841 = ( GEOMETRIC_REPRESENTATION_CONTEXT(2) 
PARAMETRIC_REPRESENTATION_CONTEXT() REPRESENTATION_CONTEXT('2D SPACE',''
  ) );
#842 = PCURVE('',#843,#848);
#843 = CONICAL_SURFACE('',#844,1.7,4.467613472124E-02);
#844 = AXIS2_PLACEMENT_3D('',#845,#846,#847);
#845 = CARTESIAN_POINT('',(0.,0.,0.));
#846 = DIRECTION('',(-1.,-0.,-0.));
#847 = DIRECTION('',(0.,1.,0.));
#848 = DEFINITIONAL_REPRESENTATION('',(#849),#853);
#849 = LINE('',#850,#851);
#850 = CARTESIAN_POINT('',(-0.,-0.));
#851 = VECTOR('',#852,1.);
#852 = DIRECTION('',(-1.,-0.));
#853 = ( GEOMETRIC_REPRESENTATION_CONTEXT(2) 
PARAMETRIC_REPRESENTATION_CONTEXT() REPRESENTATION_CONTEXT('2D SPACE',''
  ) );
#854 = FACE_BOUND('',#855,.F.);
#855 = EDGE_LOOP('',(#856));
#856 = ORIENTED_EDGE('',*,*,#148,.F.);
#857 = ADVANCED_FACE('',(#858),#302,.T.);
#858 = FACE_BOUND('',#859,.F.);
#859 = EDGE_LOOP('',(#860,#861,#884,#911,#912,#913,#935,#936));
#860 = ORIENTED_EDGE('',*,*,#202,.T.);
#861 = ORIENTED_EDGE('',*,*,#862,.T.);
#862 = EDGE_CURVE('',#205,#863,#865,.T.);
#863 = VERTEX_POINT('',#864);
#864 = CARTESIAN_POINT('',(-8.4,-8.,0.));
#865 = SEAM_CURVE('',#866,(#870,#877),.PCURVE_S1.);
#866 = LINE('',#867,#868);
#867 = CARTESIAN_POINT('',(-8.4,0.,0.));
#868 = VECTOR('',#869,1.);
#869 = DIRECTION('',(0.,-1.,0.));
#870 = PCURVE('',#302,#871);
#871 = DEFINITIONAL_REPRESENTATION('',(#872),#876);
#872 = LINE('',#873,#874);
#873 = CARTESIAN_POINT('',(-6.28318530718,0.));
#874 = VECTOR('',#875,1.);
#875 = DIRECTION('',(-0.,-1.));
#876 = ( GEOMETRIC_REPRESENTATION_CONTEXT(2) 
PARAMETRIC_REPRESENTATION_CONTEXT() REPRESENTATION_CONTEXT('2D SPACE',''
  ) );
#877 = PCURVE('',#302,#878);
#878 = DEFINITIONAL_REPRESENTATION('',(#879),#883);
#879 = LINE('',#880,#881);
#880 = CARTESIAN_POINT('',(-0.,0.));
#881 = VECTOR('',#882,1.);
#882 = DIRECTION('',(-0.,-1.));
#883 = ( GEOMETRIC_REPRESENTATION_CONTEXT(2) 
PARAMETRIC_REPRESENTATION_CONTEXT() REPRESENTATION_CONTEXT('2D SPACE',''
  ) );
#884 = ORIENTED_EDGE('',*,*,#885,.T.);
#885 = EDGE_CURVE('',#863,#863,#886,.T.);
#886 = SURFACE_CURVE('',#887,(#892,#899),.PCURVE_S1.);
#887 = CIRCLE('',#888,1.6);
#888 = AXIS2_PLACEMENT_3D('',#889,#890,#891);
#889 = CARTESIAN_POINT('',(-10.,-8.,0.));
#890 = DIRECTION('',(0.,-1.,0.));
#891 = DIRECTION('',(1.,0.,0.));
#892 = PCURVE('',#302,#893);
#893 = DEFINITIONAL_REPRESENTATION('',(#894),#898);
#894 = LINE('',#895,#896);
#895 = CARTESIAN_POINT('',(-0.,-8.));
#896 = VECTOR('',#897,1.);
#897 = DIRECTION('',(-1.,0.));
#898 = ( GEOMETRIC_REPRESENTATION_CONTEXT(2) 
PARAMETRIC_REPRESENTATION_CONTEXT() REPRESENTATION_CONTEXT('2D SPACE',''
  ) );
#899 = PCURVE('',#900,#905);
#900 = PLANE('',#901);
#901 = AXIS2_PLACEMENT_3D('',#902,#903,#904);
#902 = CARTESIAN_POINT('',(-10.,-8.,4.151676440012E-17));
#903 = DIRECTION('',(-0.,-1.,-0.));
#904 = DIRECTION('',(0.,0.,-1.));
#905 = DEFINITIONAL_REPRESENTATION('',(#906),#910);
#906 = CIRCLE('',#907,1.6);
#907 = AXIS2_PLACEMENT_2D('',#908,#909);
#908 = CARTESIAN_POINT('',(4.151676440012E-17,0.));
#909 = DIRECTION('',(0.,1.));
#910 = ( GEOMETRIC_REPRESENTATION_CONTEXT(2) 
PARAMETRIC_REPRESENTATION_CONTEXT() REPRESENTATION_CONTEXT('2D SPACE',''
  ) );
#911 = ORIENTED_EDGE('',*,*,#862,.F.);
#912 = ORIENTED_EDGE('',*,*,#355,.T.);
#913 = ORIENTED_EDGE('',*,*,#914,.F.);
#914 = EDGE_CURVE('',#502,#356,#915,.T.);
#915 = SURFACE_CURVE('',#916,(#921,#928),.PCURVE_S1.);
#916 = CIRCLE('',#917,1.6);
#917 = AXIS2_PLACEMENT_3D('',#918,#919,#920);
#918 = CARTESIAN_POINT('',(-10.,0.,0.));
#919 = DIRECTION('',(0.,-1.,0.));
#920 = DIRECTION('',(1.,0.,0.));
#921 = PCURVE('',#302,#922);
#922 = DEFINITIONAL_REPRESENTATION('',(#923),#927);
#923 = LINE('',#924,#925);
#924 = CARTESIAN_POINT('',(-0.,0.));
#925 = VECTOR('',#926,1.);
#926 = DIRECTION('',(-1.,0.));
#927 = ( GEOMETRIC_REPRESENTATION_CONTEXT(2) 
PARAMETRIC_REPRESENTATION_CONTEXT() REPRESENTATION_CONTEXT('2D SPACE',''
  ) );
#928 = PCURVE('',#516,#929);
#929 = DEFINITIONAL_REPRESENTATION('',(#930),#934);
#930 = CIRCLE('',#931,1.6);
#931 = AXIS2_PLACEMENT_2D('',#932,#933);
#932 = CARTESIAN_POINT('',(4.151676440012E-17,0.));
#933 = DIRECTION('',(0.,1.));
#934 = ( GEOMETRIC_REPRESENTATION_CONTEXT(2) 
PARAMETRIC_REPRESENTATION_CONTEXT() REPRESENTATION_CONTEXT('2D SPACE',''
  ) );
#935 = ORIENTED_EDGE('',*,*,#527,.F.);
#936 = ORIENTED_EDGE('',*,*,#937,.F.);
#937 = EDGE_CURVE('',#203,#528,#938,.T.);
#938 = SURFACE_CURVE('',#939,(#944,#951),.PCURVE_S1.);
#939 = CIRCLE('',#940,1.6);
#940 = AXIS2_PLACEMENT_3D('',#941,#942,#943);
#941 = CARTESIAN_POINT('',(-10.,0.,0.));
#942 = DIRECTION('',(0.,-1.,0.));
#943 = DIRECTION('',(1.,0.,0.));
#944 = PCURVE('',#302,#945);
#945 = DEFINITIONAL_REPRESENTATION('',(#946),#950);
#946 = LINE('',#947,#948);
#947 = CARTESIAN_POINT('',(-0.,0.));
#948 = VECTOR('',#949,1.);
#949 = DIRECTION('',(-1.,0.));
#950 = ( GEOMETRIC_REPRESENTATION_CONTEXT(2) 
PARAMETRIC_REPRESENTATION_CONTEXT() REPRESENTATION_CONTEXT('2D SPACE',''
  ) );
#951 = PCURVE('',#812,#952);
#952 = DEFINITIONAL_REPRESENTATION('',(#953),#957);
#953 = CIRCLE('',#954,1.6);
#954 = AXIS2_PLACEMENT_2D('',#955,#956);
#955 = CARTESIAN_POINT('',(4.151676440012E-17,0.));
#956 = DIRECTION('',(0.,1.));
#957 = ( GEOMETRIC_REPRESENTATION_CONTEXT(2) 
PARAMETRIC_REPRESENTATION_CONTEXT() REPRESENTATION_CONTEXT('2D SPACE',''
  ) );
#958 = ADVANCED_FACE('',(#959),#812,.F.);
#959 = FACE_BOUND('',#960,.F.);
#960 = EDGE_LOOP('',(#961,#962));
#961 = ORIENTED_EDGE('',*,*,#799,.T.);
#962 = ORIENTED_EDGE('',*,*,#937,.T.);
#963 = ADVANCED_FACE('',(#964),#516,.F.);
#964 = FACE_BOUND('',#965,.F.);
#965 = EDGE_LOOP('',(#966,#967));
#966 = ORIENTED_EDGE('',*,*,#914,.T.);
#967 = ORIENTED_EDGE('',*,*,#501,.F.);
#968 = ADVANCED_FACE('',(#969),#843,.T.);
#969 = FACE_BOUND('',#970,.T.);
#970 = EDGE_LOOP('',(#971,#972,#992,#1019));
#971 = ORIENTED_EDGE('',*,*,#826,.T.);
#972 = ORIENTED_EDGE('',*,*,#973,.T.);
#973 = EDGE_CURVE('',#827,#974,#976,.T.);
#974 = VERTEX_POINT('',#975);
#975 = CARTESIAN_POINT('',(34.,0.18,0.));
#976 = SEAM_CURVE('',#977,(#980,#986),.PCURVE_S1.);
#977 = B_SPLINE_CURVE_WITH_KNOTS('',1,(#978,#979),.UNSPECIFIED.,.F.,.F.,
  (2,2),(0.,1.),.PIECEWISE_BEZIER_KNOTS.);
#978 = CARTESIAN_POINT('',(0.,1.7,0.));
#979 = CARTESIAN_POINT('',(34.,0.18,0.));
#980 = PCURVE('',#843,#981);
#981 = DEFINITIONAL_REPRESENTATION('',(#982),#985);
#982 = B_SPLINE_CURVE_WITH_KNOTS('',1,(#983,#984),.UNSPECIFIED.,.F.,.F.,
  (2,2),(0.,1.),.PIECEWISE_BEZIER_KNOTS.);
#983 = CARTESIAN_POINT('',(-6.28318530718,0.));
#984 = CARTESIAN_POINT('',(-6.28318530718,-34.));
#985 = ( GEOMETRIC_REPRESENTATION_CONTEXT(2) 
PARAMETRIC_REPRESENTATION_CONTEXT() REPRESENTATION_CONTEXT('2D SPACE',''
  ) );
#986 = PCURVE('',#843,#987);
#987 = DEFINITIONAL_REPRESENTATION('',(#988),#991);
#988 = B_SPLINE_CURVE_WITH_KNOTS('',1,(#989,#990),.UNSPECIFIED.,.F.,.F.,
  (2,2),(0.,1.),.PIECEWISE_BEZIER_KNOTS.);
#989 = CARTESIAN_POINT('',(0.,0.));
#990 = CARTESIAN_POINT('',(0.,-34.));
#991 = ( GEOMETRIC_REPRESENTATION_CONTEXT(2) 
PARAMETRIC_REPRESENTATION_CONTEXT() REPRESENTATION_CONTEXT('2D SPACE',''
  ) );
#992 = ORIENTED_EDGE('',*,*,#993,.F.);
#993 = EDGE_CURVE('',#974,#974,#994,.T.);
#994 = SURFACE_CURVE('',#995,(#1000,#1007),.PCURVE_S1.);
#995 = CIRCLE('',#996,0.18);
#996 = AXIS2_PLACEMENT_3D('',#997,#998,#999);
#997 = CARTESIAN_POINT('',(34.,0.,0.));
#998 = DIRECTION('',(1.,0.,0.));
#999 = DIRECTION('',(0.,1.,0.));
#1000 = PCURVE('',#843,#1001);
#1001 = DEFINITIONAL_REPRESENTATION('',(#1002),#1006);
#1002 = LINE('',#1003,#1004);
#1003 = CARTESIAN_POINT('',(-0.,-34.));
#1004 = VECTOR('',#1005,1.);
#1005 = DIRECTION('',(-1.,-0.));
#1006 = ( GEOMETRIC_REPRESENTATION_CONTEXT(2) 
PARAMETRIC_REPRESENTATION_CONTEXT() REPRESENTATION_CONTEXT('2D SPACE',''
  ) );
#1007 = PCURVE('',#1008,#1013);
#1008 = PLANE('',#1009);
#1009 = AXIS2_PLACEMENT_3D('',#1010,#1011,#1012);
#1010 = CARTESIAN_POINT('',(34.,0.,0.));
#1011 = DIRECTION('',(1.,0.,0.));
#1012 = DIRECTION('',(0.,1.,0.));
#1013 = DEFINITIONAL_REPRESENTATION('',(#1014),#1018);
#1014 = CIRCLE('',#1015,0.18);
#1015 = AXIS2_PLACEMENT_2D('',#1016,#1017);
#1016 = CARTESIAN_POINT('',(0.,0.));
#1017 = DIRECTION('',(1.,0.));
#1018 = ( GEOMETRIC_REPRESENTATION_CONTEXT(2) 
PARAMETRIC_REPRESENTATION_CONTEXT() REPRESENTATION_CONTEXT('2D SPACE',''
  ) );
#1019 = ORIENTED_EDGE('',*,*,#973,.F.);
#1020 = ADVANCED_FACE('',(#1021),#900,.T.);
#1021 = FACE_BOUND('',#1022,.T.);
#1022 = EDGE_LOOP('',(#1023));
#1023 = ORIENTED_EDGE('',*,*,#885,.T.);
#1024 = ADVANCED_FACE('',(#1025),#1008,.T.);
#1025 = FACE_BOUND('',#1026,.T.);
#1026 = EDGE_LOOP('',(#1027));
#1027 = ORIENTED_EDGE('',*,*,#993,.T.);
#1028 = ( GEOMETRIC_REPRESENTATION_CONTEXT(3) 
GLOBAL_UNCERTAINTY_ASSIGNED_CONTEXT((#1032)) 
GLOBAL_UNIT_ASSIGNED_CONTEXT((#1029,#1030,#1031)) REPRESENTATION_CONTEXT
('Context #1','3D Context with UNIT and UNCERTAINTY') );
#1029 = ( LENGTH_UNIT() NAMED_UNIT(*) SI_UNIT(.MILLI.,.METRE.) );
#1030 = ( NAMED_UNIT(*) PLANE_ANGLE_UNIT() SI_UNIT($,.RADIAN.) );
#1031 = ( NAMED_UNIT(*) SI_UNIT($,.STERADIAN.) SOLID_ANGLE_UNIT() );
#1032 = UNCERTAINTY_MEASURE_WITH_UNIT(LENGTH_MEASURE(1.E-07),#1029,
  'distance_accuracy_value','confusion accuracy');
#1033 = PRODUCT_RELATED_PRODUCT_CATEGORY('part',$,(#7));
ENDSEC;
END-ISO-10303-21;
